<svg width="30" height="31" viewBox="0 0 30 31" fill="none" xmlns="http://www.w3.org/2000/svg">
<path d="M28.0709 2.88288L20.5788 2.88291V0.963217C20.5788 0.43104 20.1601 0 19.6431 0C19.1261 0 18.7074 0.43104 18.7074 0.963217V2.88243H11.2218V0.963217C11.2218 0.43104 10.8031 0 10.2861 0C9.76914 0 9.35042 0.43104 9.35042 0.963217V2.88243H1.87139C0.837916 2.88243 0 3.74499 0 4.80886V28.8893C0 29.9531 0.837916 30.8157 1.87139 30.8157H28.0709C29.1044 30.8157 29.9423 29.9531 29.9423 28.8893V4.80886C29.9423 3.74544 29.1044 2.88288 28.0709 2.88288ZM28.0709 28.8893H1.87139V4.80886H9.35042V5.7793C9.35042 6.31145 9.76914 6.74252 10.2861 6.74252C10.8031 6.74252 11.2218 6.31145 11.2218 5.7793V4.80934H18.7074V5.77979C18.7074 6.31196 19.1261 6.743 19.6431 6.743C20.1601 6.743 20.5788 6.31196 20.5788 5.77979V4.80934H28.0709V28.8893ZM21.521 15.4047H23.3924C23.9089 15.4047 24.3281 14.9732 24.3281 14.4415V12.5151C24.3281 11.9834 23.9089 11.5518 23.3924 11.5518H21.521C21.0045 11.5518 20.5853 11.9834 20.5853 12.5151V14.4415C20.5853 14.9732 21.0045 15.4047 21.521 15.4047ZM21.521 23.11H23.3924C23.9089 23.11 24.3281 22.6789 24.3281 22.1467V20.2203C24.3281 19.6886 23.9089 19.2571 23.3924 19.2571H21.521C21.0045 19.2571 20.5853 19.6886 20.5853 20.2203V22.1467C20.5853 22.6794 21.0045 23.11 21.521 23.11ZM15.9068 19.2571H14.0355C13.5189 19.2571 13.0998 19.6886 13.0998 20.2203V22.1467C13.0998 22.6789 13.5189 23.11 14.0355 23.11H15.9068C16.4234 23.11 16.8425 22.6789 16.8425 22.1467V20.2203C16.8425 19.6891 16.4234 19.2571 15.9068 19.2571ZM15.9068 11.5518H14.0355C13.5189 11.5518 13.0998 11.9834 13.0998 12.5151V14.4415C13.0998 14.9732 13.5189 15.4047 14.0355 15.4047H15.9068C16.4234 15.4047 16.8425 14.9732 16.8425 14.4415V12.5151C16.8425 11.9829 16.4234 11.5518 15.9068 11.5518ZM8.42127 11.5518H6.54988C6.03337 11.5518 5.61418 11.9834 5.61418 12.5151V14.4415C5.61418 14.9732 6.03337 15.4047 6.54988 15.4047H8.42127C8.93778 15.4047 9.35697 14.9732 9.35697 14.4415V12.5151C9.35697 11.9829 8.93778 11.5518 8.42127 11.5518ZM8.42127 19.2571H6.54988C6.03337 19.2571 5.61418 19.6886 5.61418 20.2203V22.1467C5.61418 22.6789 6.03337 23.11 6.54988 23.11H8.42127C8.93778 23.11 9.35697 22.6789 9.35697 22.1467V20.2203C9.35697 19.6891 8.93778 19.2571 8.42127 19.2571Z" fill="#343434"/>
</svg>
